<svg xmlns="http://www.w3.org/2000/svg" viewBox="0 0 200 200">
  <!-- Bunny body -->
  <ellipse cx="100" cy="110" rx="40" ry="35" fill="#f2e6ff" />
  
  <!-- Bunny head -->
  <circle cx="100" cy="70" r="35" fill="#f2e6ff" />
  
  <!-- Ears relaxed -->
  <path d="M80 45 Q75 20 85 25 Q85 15 95 20 L95 45 Z" fill="#f2e6ff" />
  <path d="M120 45 Q125 20 115 25 Q115 15 105 20 L105 45 Z" fill="#f2e6ff" />
  <path d="M85 30 Q85 20 95 25 L95 45 Z" fill="#ffccf2" />
  <path d="M115 30 Q115 20 105 25 L105 45 Z" fill="#ffccf2" />
  
  <!-- Face -->
  <!-- Calm, gently closed eyes -->
  <path d="M80 65 Q85 68 90 65" fill="none" stroke="#000" stroke-width="1.5" />
  <path d="M110 65 Q115 68 120 65" fill="none" stroke="#000" stroke-width="1.5" />
  
  <!-- Nose -->
  <ellipse cx="100" cy="78" rx="6" ry="4" fill="#ffb3e6" />
  
  <!-- Gentle smile -->
  <path d="M90 85 Q100 90 110 85" fill="none" stroke="#000" stroke-width="1.5" />
  
  <!-- Whiskers -->
  <line x1="80" y1="80" x2="65" y2="78" stroke="#666" stroke-width="1" />
  <line x1="80" y1="82" x2="65" y2="83" stroke="#666" stroke-width="1" />
  <line x1="120" y1="80" x2="135" y2="78" stroke="#666" stroke-width="1" />
  <line x1="120" y1="82" x2="135" y2="83" stroke="#666" stroke-width="1" />
  
  <!-- Relaxed, content bunny position -->
  <ellipse cx="100" cy="140" rx="30" ry="15" fill="#f2e6ff" />
</svg>
