<svg xmlns="http://www.w3.org/2000/svg" viewBox="0 0 200 200">
  <!-- Bunny body -->
  <ellipse cx="100" cy="110" rx="40" ry="35" fill="#f2e6ff" />
  
  <!-- Bunny head -->
  <circle cx="100" cy="70" r="35" fill="#f2e6ff" />
  
  <!-- Ears -->
  <path d="M80 45 Q70 15 85 25 Q85 10 95 20 L95 45 Z" fill="#f2e6ff" />
  <path d="M120 45 Q130 15 115 25 Q115 10 105 20 L105 45 Z" fill="#f2e6ff" />
  <path d="M85 30 Q85 15 95 25 L95 45 Z" fill="#ffccf2" />
  <path d="M115 30 Q115 15 105 25 L105 45 Z" fill="#ffccf2" />
  
  <!-- Face -->
  <!-- Eyes looking at food -->
  <circle cx="85" cy="68" r="5" fill="white" />
  <circle cx="85" cy="68" r="2" fill="black" />
  <circle cx="115" cy="68" r="5" fill="white" />
  <circle cx="115" cy="68" r="2" fill="black" />
  
  <!-- Looking down at food -->
  <line x1="85" y1="70" x2="87" y2="72" stroke="black" stroke-width="1" />
  <line x1="115" y1="70" x2="113" y2="72" stroke="black" stroke-width="1" />
  
  <!-- Nose -->
  <ellipse cx="100" cy="78" rx="6" ry="4" fill="#ffb3e6" />
  
  <!-- Mouth watering -->
  <path d="M90 85 Q100 95 110 85" fill="none" stroke="#000" stroke-width="1.5" />
  <path d="M100 95 L100 100" stroke="#33ccff" stroke-width="2" />
  
  <!-- Whiskers -->
  <line x1="80" y1="80" x2="65" y2="78" stroke="#666" stroke-width="1" />
  <line x1="80" y1="82" x2="65" y2="83" stroke="#666" stroke-width="1" />
  <line x1="120" y1="80" x2="135" y2="78" stroke="#666" stroke-width="1" />
  <line x1="120" y1="82" x2="135" y2="83" stroke="#666" stroke-width="1" />
  
  <!-- Carrot thought bubble -->
  <ellipse cx="135" cy="40" rx="15" ry="10" fill="white" stroke="#ccc" />
  <path d="M120 45 L130 55" stroke="#ccc" />
  <path d="M130 55 Q125 60 120 65" stroke="#ccc" />
  <path d="M132 35 L140 40 L132 45 Z" fill="#ff9933" />
  <path d="M132 35 L128 40 L132 45 Z" fill="#ff9933" />
  <line x1="140" y1="40" x2="145" y2="40" stroke="#33cc33" stroke-width="2" />
</svg>
