<svg xmlns="http://www.w3.org/2000/svg" viewBox="0 0 200 200">
  <!-- Bunny body -->
  <ellipse cx="100" cy="110" rx="40" ry="35" fill="#f2e6ff" />
  
  <!-- Bunny head -->
  <circle cx="100" cy="70" r="35" fill="#f2e6ff" />
  
  <!-- Ears -->
  <path d="M80 45 Q70 15 85 25 Q85 10 95 20 L95 45 Z" fill="#f2e6ff" />
  <path d="M120 45 Q130 15 115 25 Q115 10 105 20 L105 45 Z" fill="#f2e6ff" />
  <path d="M85 30 Q85 15 95 25 L95 45 Z" fill="#ffccf2" />
  <path d="M115 30 Q115 15 105 25 L105 45 Z" fill="#ffccf2" />
  
  <!-- Face -->
  <!-- Unimpressed eyes -->
  <circle cx="85" cy="65" r="5" fill="white" />
  <circle cx="85" cy="65" r="2" fill="black" />
  <circle cx="115" cy="65" r="5" fill="white" />
  <circle cx="115" cy="65" r="2" fill="black" />
  
  <!-- Eyebrows showing boredom -->
  <path d="M75 58 L90 60" stroke="#000" stroke-width="1.5" />
  <path d="M110 60 L125 58" stroke="#000" stroke-width="1.5" />
  
  <!-- Nose -->
  <ellipse cx="100" cy="78" rx="6" ry="4" fill="#ffb3e6" />
  
  <!-- Bored, flat mouth -->
  <line x1="90" y1="90" x2="110" y2="90" stroke="#000" stroke-width="1.5" />
  
  <!-- Whiskers -->
  <line x1="80" y1="80" x2="65" y2="78" stroke="#666" stroke-width="1" />
  <line x1="80" y1="82" x2="65" y2="83" stroke="#666" stroke-width="1" />
  <line x1="120" y1="80" x2="135" y2="78" stroke="#666" stroke-width="1" />
  <line x1="120" y1="82" x2="135" y2="83" stroke="#666" stroke-width="1" />
  
  <!-- Paw propping head up -->
  <ellipse cx="65" cy="75" rx="10" ry="8" fill="#f2e6ff" />
</svg>
