<svg xmlns="http://www.w3.org/2000/svg" viewBox="0 0 200 200">
  <!-- Bunny body -->
  <ellipse cx="100" cy="110" rx="40" ry="35" fill="#f2e6ff" />
  
  <!-- Bunny head -->
  <circle cx="100" cy="70" r="35" fill="#f2e6ff" />
  
  <!-- Ears -->
  <path d="M80 45 Q70 15 85 25 Q85 10 95 20 L95 45 Z" fill="#f2e6ff" />
  <path d="M120 45 Q130 15 115 25 Q115 10 105 20 L105 45 Z" fill="#f2e6ff" />
  <path d="M85 30 Q85 15 95 25 L95 45 Z" fill="#ffccf2" />
  <path d="M115 30 Q115 15 105 25 L105 45 Z" fill="#ffccf2" />
  
  <!-- Face -->
  <!-- Sleepy eyes (half closed) -->
  <path d="M80 65 Q90 58 100 65" fill="none" stroke="#000" stroke-width="1.5" />
  <path d="M120 65 Q110 58 100 65" fill="none" stroke="#000" stroke-width="1.5" />
  
  <!-- Eyelids -->
  <ellipse cx="85" cy="65" rx="8" ry="3" fill="#f2e6ff" />
  <ellipse cx="115" cy="65" rx="8" ry="3" fill="#f2e6ff" />
  
  <!-- Nose -->
  <ellipse cx="100" cy="78" rx="6" ry="4" fill="#ffb3e6" />
  
  <!-- Yawning mouth -->
  <ellipse cx="100" cy="90" rx="5" ry="8" fill="#ffccf2" />
  
  <!-- Whiskers -->
  <line x1="80" y1="80" x2="65" y2="78" stroke="#666" stroke-width="1" />
  <line x1="80" y1="82" x2="65" y2="83" stroke="#666" stroke-width="1" />
  <line x1="120" y1="80" x2="135" y2="78" stroke="#666" stroke-width="1" />
  <line x1="120" y1="82" x2="135" y2="83" stroke="#666" stroke-width="1" />
  
  <!-- Little Z's for sleeping -->
  <text x="130" y="50" font-family="Arial" font-size="15" font-weight="bold">z</text>
  <text x="140" y="40" font-family="Arial" font-size="18" font-weight="bold">Z</text>
</svg>
